<svg id="favicon" xmlns="http://www.w3.org/2000/svg" viewBox="0 0 280.43 320">
<style>
  path {
    fill: #000;
  }

  @media (prefers-color-scheme: dark) {
    path {
        fill: #fff;
    }
  }
</style>
<title>favicon</title><path d="M229.48,120.66c24.88-27.22,49.11-58.08,61.39-78.32,9.63-15.27,10-20.59,9-23.57l-6.3,2c0,.33,1,3.64-9,19.58C272,60.3,248.06,90.46,223.82,117a415.22,415.22,0,0,1-35.9,35.17c2.32-9.61,5.32-19.57,8.63-31.18C212.81,61.92,229.41,4.84,229.41,4.17a2.95,2.95,0,0,0-2.33-4A3.08,3.08,0,0,0,223.14,2l0,.14c0,.66-16.93,57.74-32.86,116.82l-10.95,40.15a36.28,36.28,0,0,1-9,5c-1.64.15-3.06.29-4.2.44a182.75,182.75,0,0,0-37.24,4c1-5,2-9.95,3.31-15.27a960.83,960.83,0,0,1,28.54-98.56c2.66-8,3-9.31,3-10.28a3.33,3.33,0,0,0-3.32-3.33,3.54,3.54,0,0,0-3.31,3,66.08,66.08,0,0,1-2.66,8.62,1011.82,1011.82,0,0,0-28.88,98.91l-4,18.62c-5.64,1.33-11,3-16.59,4.64A325.07,325.07,0,0,0,68.55,189.2c7-47.46,19.25-96.57,19.58-97.57a3.34,3.34,0,0,0-2.56-4l-.1,0a3.6,3.6,0,0,0-4,2.31c0,.34-8.3,33.87-15.27,72-2,11-3.64,21.28-5,30.59a11.71,11.71,0,0,1-3,1.33c-15.6,7-28.88,12.94-33.25,10a3.57,3.57,0,0,0-4.64,1,3.26,3.26,0,0,0,.83,4.55l.16.1c1.65,1.33,4,1.65,6.65,1.65,7.3,0,17.92-4.31,31.86-10.94-4,30.85-4.31,53.09-1,65.71a4,4,0,0,0,3.32,2.31H63a3.5,3.5,0,0,0,2.66-4c-3.66-13.93-2-39.81,1.65-67.37,14.94-6.65,32.86-14.27,53.11-19.58-10,49.45-14.94,96.25-14.94,139.4a3.33,3.33,0,0,0,6.65,0c0-43.81,5.32-91.28,15.27-141.06A184.79,184.79,0,0,1,163,171.38h.08c.46,0,.9-.08,1.33-.1h1.84a6.56,6.56,0,0,1,1.08-.09,7.48,7.48,0,0,1,1.33.12l1.15-.21c.67,0,1.33-.32,2-.32,1.33,0,3-.34,4.64-.34-12.61,48.12-18.91,76-18.25,83.63a3.33,3.33,0,0,0,3.32,3.33,3.87,3.87,0,0,0,3.32-3.66c-.33-4,2-21.28,18.25-83.3A134.69,134.69,0,0,1,204,173.1a88.81,88.81,0,0,1,30.21,13,84.24,84.24,0,0,1,26.6,28.54,3.52,3.52,0,0,0,3,1.66,3.66,3.66,0,0,0,1.66-.33,3.58,3.58,0,0,0,1-4.65,87,87,0,0,0-28.88-31.2,99.75,99.75,0,0,0-32.85-13.6,167.6,167.6,0,0,0-19.57-2.66v-.67C199.61,152.52,217.85,133.6,229.48,120.66Z" transform="translate(-19.79 0)"/></svg>
