<?xml version="1.0" standalone="no"?>
<!DOCTYPE svg PUBLIC "-//W3C//DTD SVG 20010904//EN"
 "http://www.w3.org/TR/2001/REC-SVG-20010904/DTD/svg10.dtd">
<svg version="1.0" xmlns="http://www.w3.org/2000/svg"
 width="640.000000pt" height="640.000000pt" viewBox="0 0 640.000000 640.000000"
 preserveAspectRatio="xMidYMid meet">
<metadata>
Created by potrace 1.11, written by Peter Selinger 2001-2013
</metadata>
<g transform="translate(0.000000,640.000000) scale(0.100000,-0.100000)"
fill="#000000" stroke="none">
<path d="M4170 5607 c-21 -11 -32 -39 -82 -212 -32 -110 -64 -222 -73 -250
-19 -66 -165 -582 -175 -620 -5 -16 -31 -113 -60 -215 -28 -102 -105 -383
-171 -625 -66 -242 -122 -448 -125 -457 -3 -10 -38 -33 -77 -52 -71 -34 -75
-35 -236 -41 -90 -3 -166 -7 -170 -9 -3 -2 -31 -7 -62 -10 -31 -4 -67 -9 -80
-12 -13 -3 -45 -7 -70 -10 l-46 -6 24 99 c46 196 135 559 144 588 5 17 39 134
75 260 36 127 115 380 176 564 118 360 119 367 63 393 -49 22 -60 2 -151 -272
-166 -501 -245 -768 -354 -1195 -22 -88 -42 -169 -44 -180 -2 -11 -12 -56 -21
-100 -10 -44 -23 -104 -29 -134 l-11 -54 -130 -38 c-172 -50 -340 -109 -507
-179 -88 -37 -138 -53 -138 -45 0 7 9 64 20 126 11 63 22 132 25 154 4 22 8
48 11 58 3 10 7 32 10 50 2 18 8 55 14 82 5 28 12 61 14 75 23 130 120 577
168 773 24 103 28 133 20 152 -22 48 -93 40 -113 -12 -14 -37 -131 -571 -183
-838 -48 -244 -50 -257 -66 -350 -5 -33 -12 -69 -14 -80 -2 -11 -7 -45 -12
-75 -4 -30 -8 -57 -9 -60 -1 -3 -5 -30 -9 -61 -4 -31 -11 -61 -14 -66 -8 -13
-259 -122 -352 -154 -65 -22 -139 -28 -195 -15 -58 14 -94 -52 -54 -100 34
-42 154 -41 287 2 84 27 259 101 281 118 12 9 13 1 7 -49 -4 -33 -9 -80 -12
-105 -3 -25 -7 -58 -9 -75 -17 -132 -24 -441 -13 -565 14 -150 25 -188 60
-206 24 -12 36 -13 54 -5 31 14 38 47 25 113 -17 81 -21 132 -21 268 0 147 12
350 25 440 2 14 9 75 15 136 l12 112 62 27 c245 110 676 265 705 253 4 -2 2
-31 -5 -66 -7 -34 -15 -79 -19 -100 -5 -37 -21 -127 -29 -168 -5 -25 -14 -78
-22 -131 -3 -21 -9 -63 -14 -93 -11 -66 -29 -187 -36 -250 -3 -25 -7 -56 -9
-70 -2 -14 -7 -52 -10 -85 -6 -57 -10 -97 -20 -175 -2 -19 -7 -71 -11 -115 -3
-44 -7 -96 -9 -115 -4 -44 -17 -265 -21 -345 -1 -33 -3 -134 -4 -225 -1 -159
-1 -165 21 -183 23 -19 52 -15 81 10 14 12 17 39 18 171 1 86 3 182 5 212 5
93 17 303 20 345 4 60 21 234 30 320 12 98 14 121 20 175 3 30 8 66 10 80 2
14 7 45 10 70 4 25 9 59 12 75 3 17 5 37 5 45 0 8 4 33 8 55 5 22 11 63 15 90
3 28 8 57 10 65 2 8 6 33 10 55 8 54 53 301 64 347 5 20 6 39 3 42 -3 4 -1 6
4 6 5 0 46 7 91 14 45 8 108 18 140 22 32 3 67 8 78 10 11 2 74 6 140 9 66 3
153 8 194 11 73 5 74 5 67 -18 -8 -30 -147 -578 -151 -598 -2 -8 -12 -53 -24
-100 -11 -47 -23 -96 -25 -110 -2 -14 -12 -58 -20 -97 -50 -234 -58 -330 -28
-355 31 -27 51 -28 76 -5 21 18 26 34 31 92 5 71 10 110 21 155 3 14 8 36 10
50 13 75 105 471 165 709 38 150 69 275 69 278 0 7 124 -4 237 -21 356 -55
703 -285 893 -594 17 -29 40 -57 51 -62 27 -15 65 -2 78 27 10 22 8 34 -15 78
-42 83 -145 215 -238 303 -203 191 -479 324 -766 368 -19 3 -46 7 -60 9 -14 3
-47 7 -75 10 -27 4 -51 7 -52 9 -2 1 39 36 90 77 99 80 413 388 542 533 44 49
85 94 91 100 5 6 68 79 140 161 412 478 764 973 832 1171 16 49 21 92 13 136
0 3 -23 -2 -50 -12 -28 -10 -52 -16 -54 -13 -3 2 -8 -13 -12 -34 -8 -44 -66
-163 -127 -261 -79 -127 -408 -577 -447 -612 -3 -3 -24 -27 -46 -55 -264 -331
-598 -689 -903 -969 l-33 -31 7 30 c4 17 35 129 69 250 35 121 79 281 100 355
32 115 132 472 230 820 15 52 28 100 29 105 1 6 10 37 20 70 10 33 20 67 21
75 2 8 26 92 53 185 87 297 93 324 82 345 -9 16 -40 40 -52 40 -2 0 -14 -6
-28 -13z"/>
</g>
</svg>
