<svg xmlns="http://www.w3.org/2000/svg" id="feedly" class="icon feedly" width="18" height="18" viewBox="0 0 32 32" aria-hidden="true"><path d="M9.86 29.244l-9.036-9.1c-1.1-1.1-1.1-3.48 0-4.52L13.772 2.62c1.04-1.04 3.36-1.04 4.396 0l13.008 13.006c1.1 1.1 1.1 3.48 0 4.52l-9.04 9.1c-.548.548-1.404.914-2.26.914H12c-.794 0-1.588-.366-2.14-.916zm8.246-3.54c.184-.184.184-.552 0-.734l-1.77-1.772a.522.522 0 0 0-.732 0l-1.772 1.76c-.184.18-.184.54 0 .72l1.404 1.34h1.466l1.42-1.36zm0-7.514c.124-.12.124-.426 0-.548l-1.892-1.88c-.12-.12-.428-.12-.55 0l-5.496 5.5c-.184.2-.184.62 0 .8l1.28 1.28h1.468l5.19-5.142zm0-7.45c.124-.12.184-.488 0-.61l-1.832-1.832c-.12-.14-.488-.14-.67 0l-9.22 9.22c-.124.12-.186.48-.064.6l1.466 1.4H9.19l8.916-8.78z" /></svg>
