<svg role="img" xmlns="http://www.w3.org/2000/svg" id="instagram" class="icon instagram" width="18" height="18" viewBox="0 0 32 32" aria-label="instagram icon"><path d="M16 2.88c4.275 0 4.78.02 6.462.095 1.563.07 2.406.33 2.97.55.743.288 1.28.638 1.836 1.194.563.56.906 1.092 1.2 1.836.22.563.48 1.412.55 2.97.075 1.687.094 2.193.094 6.462s-.02 4.78-.094 6.462c-.07 1.563-.33 2.406-.55 2.97a4.944 4.944 0 0 1-1.194 1.836 5.02 5.02 0 0 1-1.837 1.2c-.563.22-1.413.48-2.97.55-1.687.075-2.193.094-6.462.094s-4.78-.02-6.463-.094c-1.563-.07-2.406-.33-2.97-.55a4.956 4.956 0 0 1-1.837-1.194 5.02 5.02 0 0 1-1.2-1.837c-.22-.563-.48-1.413-.55-2.97-.075-1.687-.094-2.193-.094-6.462s.02-4.78.096-6.463c.07-1.563.33-2.406.55-2.97a4.968 4.968 0 0 1 1.194-1.837 5.003 5.003 0 0 1 1.837-1.2c.563-.22 1.412-.48 2.97-.55 1.68-.075 2.187-.094 6.462-.094zM16 0c-4.344 0-4.887.02-6.594.094-1.7.075-2.87.35-3.88.744-1.057.412-1.95.956-2.838 1.85a7.83 7.83 0 0 0-1.85 2.83C.444 6.54.168 7.7.094 9.4.02 11.113 0 11.656 0 16s.02 4.887.094 6.594c.075 1.7.35 2.87.744 3.88.413 1.057.956 1.95 1.85 2.838a7.816 7.816 0 0 0 2.83 1.844c1.02.394 2.182.67 3.882.744 1.706.075 2.25.094 6.594.094s4.888-.02 6.594-.094c1.7-.075 2.87-.35 3.88-.744 1.05-.406 1.945-.956 2.832-1.844s1.438-1.78 1.844-2.83c.394-1.02.67-2.182.744-3.882.075-1.706.094-2.25.094-6.594s-.02-4.887-.094-6.594c-.075-1.7-.35-2.87-.744-3.88a7.511 7.511 0 0 0-1.83-2.845A7.869 7.869 0 0 0 26.48.843C25.46.45 24.3.173 22.6.1 20.888.016 20.344 0 16 0z" /><path d="M16 7.78c-4.537 0-8.22 3.682-8.22 8.22s3.682 8.22 8.22 8.22 8.22-3.682 8.22-8.22A8.223 8.223 0 0 0 16 7.78zm0 13.55a5.33 5.33 0 1 1 0-10.66 5.33 5.33 0 0 1 0 10.66zM26.462 7.456a1.919 1.919 0 1 1-1.918-1.92c1.06 0 1.918.86 1.918 1.92z" /></svg>
