<svg role="img" xmlns="http://www.w3.org/2000/svg" viewBox="0 0 220.61 73.79" width="220.61000061035156" height="73.79000091552734"><path d="M15.07,59.14a139.07,139.07,0,0,1,2.63-26,58.48,58.48,0,0,0-9.36,3.65c-.64,5.13-.93,10-.29,12.54a.65.65,0,0,1-.47.74H7.47a.7.7,0,0,1-.59-.43c-.58-2.35-.52-6.49.18-12.24-2.46,1.24-4.33,2-5.62,2a1.78,1.78,0,0,1-1.17-.31.62.62,0,0,1-.17-.86.61.61,0,0,1,.82-.19c.76.56,3.1-.55,5.84-1.85A1.71,1.71,0,0,0,7.29,36c.23-1.73.53-3.64.88-5.68C9.4,23.23,10.86,17,10.86,16.93a.61.61,0,1,1,1.17.31C12,17.42,9.8,26.57,8.58,35.4A55.54,55.54,0,0,1,15,32.75c1-.31,1.93-.62,2.92-.87l.7-3.46c1.93-8.71,4.16-15.51,5.09-18.41a12.28,12.28,0,0,0,.47-1.61.64.64,0,0,1,.58-.56.61.61,0,0,1,.59.62,9.05,9.05,0,0,1-.53,1.92,186.56,186.56,0,0,0-5,18.35c-.23,1-.41,1.92-.58,2.84a30.72,30.72,0,0,1,6.61-.74.6.6,0,0,1,.58.62.57.57,0,0,1-.58.62,30.93,30.93,0,0,0-6.9.8,142,142,0,0,0-2.69,26.27.6.6,0,0,1-.59.61A.59.59,0,0,1,15.07,59.14Z" class="hkb-1"/><path d="M46.11,35.48c-.17.31-5,6.73-8.59,7.66a3,3,0,0,1-.7.06,1.53,1.53,0,0,1-1.17-.43c-.76-.8-.41-2.54-.12-4l.23-1-.87,1c-1.46,1.73-3.75,4.33-6.61,4.39a1.58,1.58,0,0,1-1.81-1.42c-.06-.81.29-2.47,2.63-5.63a31.15,31.15,0,0,1,2-2.53c1.17-1.17,1.52-1.24,1.7-1.3a2.05,2.05,0,0,1,1.93.68,3,3,0,0,1,.12,3,.57.57,0,0,1-.76.31.64.64,0,0,1-.35-.8,1.82,1.82,0,0,0,.11-1.73.76.76,0,0,0-.82-.25,15.09,15.09,0,0,0-3.21,3.58c-1.81,2.48-2.28,4-2.22,4.58.05.12.05.24.58.24,2.4-.06,4.44-2.41,5.79-4,1.05-1.18,1.7-1.92,2.4-1.61.41.12.64.62.58,1.3l-.29,1.48c-.12.62-.29,1.3-.35,1.85-.06.75.06.93.17,1s.35.13.71,0c1.28-.31,3.09-1.67,5.14-3.83,1.64-1.73,2.87-3.34,2.87-3.34a.55.55,0,0,1,.81-.12A.62.62,0,0,1,46.11,35.48Z" class="hkb-2"/><path d="M58.8,37.86a28.22,28.22,0,0,0,2.87-3.34.54.54,0,0,1,.81-.06.61.61,0,0,1,.06.87,29.54,29.54,0,0,1-2.92,3.39c-1.11,1.24-4.27,4.39-6,4.39h-.4c-2.75,0-1.58-6.36-1.23-8,.23-.93.47-1.92.58-2.66a2.38,2.38,0,0,0-.06-1.3.35.35,0,0,0-.41-.06c-2.8.37-6,6.86-7,9.33a.51.51,0,0,1-.71.31.56.56,0,0,1-.35-.74l1.93-7.66a.57.57,0,0,1,.71-.43.63.63,0,0,1,.4.74L46.52,35q2.9-4.83,5.44-5.19a1.43,1.43,0,0,1,1.4.43c.82.93.35,2.9-.23,5.13a26.44,26.44,0,0,0-.53,2.72C51.9,44.84,56,40.76,58.8,37.86Z" class="hkb-3"/><path d="M68.91,38.39a47.67,47.67,0,0,1-.41-5.31,44,44,0,0,1-2.74,4.2c-2.46,3.4-3.57,3.83-4.21,3.83h-.12a1.67,1.67,0,0,1-1.87-1.48c-.18-1.55,1.23-3.89,2-5.13s2.33-3.28,3.27-3.52a1.61,1.61,0,0,1,1.7.43,2.61,2.61,0,0,1,.52,1.73l1.64-2.66c.06-.74.17-1.48.29-2.22a73.93,73.93,0,0,1,2.57-10.2c1.87-5.68,4.8-12.48,6.9-14A1.17,1.17,0,0,1,80,4c.81.62.81,2.23,0,5.13-1.41,4.64-4.86,12.3-8.83,19.47-.41.8-.88,1.54-1.29,2.22l-.12,1.36a29.48,29.48,0,0,0,.65,6.93c1.87,7.16,8.53-3,10.46-4.89a.55.55,0,0,1,.82-.06.63.63,0,0,1,.06.87,30.11,30.11,0,0,1-2.92,3.4C75.05,43.21,70.14,45.44,68.91,38.39Zm-2.63-3.53a.73.73,0,0,1-.41-.8,2,2,0,0,0-.11-1.36.33.33,0,0,0-.3-.13.52.52,0,0,0-.29.06,11,11,0,0,0-2.69,3c-1.17,1.79-1.87,3.46-1.75,4.2.06.19.06.44.76.44.17,0,1-.19,3.33-3.34Zm4-6.8c3.8-6.92,7.19-14.46,8.48-18.85.87-3,.58-3.64.52-3.77-.11.06-.76.37-2,2.6A52.38,52.38,0,0,0,74.12,15,75.3,75.3,0,0,0,70.32,28.06Z" class="hkb-4"/><path d="M94.93,35.48c-1.69,2.84-6.31,6.18-10.87,9.14-.53.37-1.06.68-1.58,1.05.11,1,.23,2,.35,2.91.29,2.28.52,4.08.52,4.94,0,2.6-2,4.64-5.49,5.62a14.07,14.07,0,0,1-4,.56c-2.34,0-4.44-.62-5.14-1.91-.41-.75-.59-1.92.93-3.47a67.32,67.32,0,0,1,11.52-9.26c-.17-1.86-.41-3.77-.47-5.5-.23-3.77.06-5.81.88-6.62a1.47,1.47,0,0,1,1.29-.43.63.63,0,0,1,.46.74.61.61,0,0,1-.7.5c-.11-.07-.17,0-.23.06-.29.31-.76,1.48-.59,5.68.12,1.49.3,3.22.47,4.82.41-.24.76-.49,1.17-.74,4.44-2.9,9-6.24,10.58-8.9.18-.31.53-.24.82-.06S95.11,35.17,94.93,35.48Zm-12.75,18c0-.8-.23-2.66-.52-4.76-.06-.74-.18-1.54-.29-2.35a63.66,63.66,0,0,0-10.88,8.78c-.53.56-1.11,1.36-.76,2,.64,1.17,4.27,1.79,7.84.74C79,57.54,82.18,56.3,82.18,53.52Z" class="hkb-5"/><path d="M100.37,37.82l-.47.87c-1.23,1.92-2.75,3-4.33,3a2.88,2.88,0,0,1-2.51-2.41A3.24,3.24,0,0,1,93.29,37a4.14,4.14,0,0,1,1.41-1.67,3.93,3.93,0,0,1-.24-1.42,4.61,4.61,0,0,1,1.35-2.78A4.49,4.49,0,0,1,99,29.91c1.63.07,2.57,1.3,2.57,3.4a11.17,11.17,0,0,1-.59,3.22,14.18,14.18,0,0,0,4.8-1.55,1.32,1.32,0,0,0,.23-.31.55.55,0,0,1,.82-.06.63.63,0,0,1,.06.87.45.45,0,0,1-.18.18C106.68,36.47,101.71,37.64,100.37,37.82Zm-1.35,0a9.4,9.4,0,0,1-1.34-.12,4.16,4.16,0,0,1-2.4-1.23,2.27,2.27,0,0,0-1.11,2.47c.23.86.82,1.48,1.4,1.48s2.05-.31,3.34-2.41Zm1.15-4.51c0-1.42-.47-2.16-1.41-2.16a3.39,3.39,0,0,0-2.4.93A3.12,3.12,0,0,0,95.43,34a2.06,2.06,0,0,0,.29,1.24v.12a3.07,3.07,0,0,0,1.93,1.12,9.23,9.23,0,0,0,1.81.12A8.71,8.71,0,0,0,100.17,33.31Z" class="hkb-6"/><path d="M117.15,32l.29-2.84a2.87,2.87,0,0,0-.06-1.17A8.79,8.79,0,0,0,116,30.29c-.59,1.48-1.29,3.46-1.87,5.19-1,3-1.64,4.75-2.17,5.25a.72.72,0,0,1-.87.18c-.65-.3-.59-1.29-.47-4.51a34.4,34.4,0,0,0,.11-3.46,4.37,4.37,0,0,0-.17-1.67c-.29.31-1.23,1.49-3.22,5.75-1.28,2.84-2.45,5.62-2.45,5.69a.6.6,0,0,1-.53.37.19.19,0,0,1-.17-.06.68.68,0,0,1-.41-.75c.06,0,.7-2.59,1.34-5.25a33.39,33.39,0,0,0,1-6,.42.42,0,0,1-.24-.44.6.6,0,0,1,.59-.61.7.7,0,0,1,.58.31c.23.3.35.86.06,2.71-.12.81-.35,1.8-.59,3,.76-1.61,1.47-2.9,2-3.89.94-1.49,1.58-2.1,2.17-2.1a.94.94,0,0,1,.7.31c.64.74.58,2.84.41,6.24,0,.68-.06,1.54-.06,2.22l1.29-3.64c.64-1.86,1.34-4,2-5.57.94-2.1,1.7-3,2.52-2.9a.8.8,0,0,1,.64.37c.58.68.41,2.22.06,5.13s-.88,7.91.23,9.27c1.58,1.67,5-2.16,6.2-3.4a27.56,27.56,0,0,0,2.86-3.34.55.55,0,0,1,.82-.06.61.61,0,0,1,.06.87,30.11,30.11,0,0,1-2.92,3.4c-2.22,2.41-6.38,6.11-7.89,3.33C116.21,40.42,116.68,35.54,117.15,32Z" class="hkb-7"/><path d="M133.69,31.08c3,0,1.7,1.79.76,3.09-1.46,2-4.85,4.82-7.13,4.94h-.06c-.23,1.67.7,3,3.57,3,1.93,0,4.15-1.73,6.08-3.83a27.56,27.56,0,0,0,2.86-3.34.54.54,0,0,1,.82-.06.6.6,0,0,1,.06.86,28.23,28.23,0,0,1-2.92,3.4c-2.22,2.41-4.91,4.2-6.84,4.2C121.47,43.31,127,32.07,133.69,31.08Zm-6.08,6.56a6.19,6.19,0,0,0,2.17-1,14.82,14.82,0,0,0,3.15-2.72,4.29,4.29,0,0,0,1.12-1.85,1.31,1.31,0,0,0-.36-.06C131.3,32.45,128.55,35.17,127.61,37.64Z" class="hkb-8"/><path d="M147.73,42.89a8.61,8.61,0,0,1-4-2.22,3.34,3.34,0,0,1-.52-.87c-1.58,2.17-2.7,3.9-2.75,4A.62.62,0,0,1,140,44a.72.72,0,0,1-.47-.24c-.35-.44-.7-1.55-.12-5.69a87.18,87.18,0,0,1,2.11-10A122.42,122.42,0,0,1,149,6.18a20.66,20.66,0,0,1,2.69-4.38c1-1.24,1.87-1.86,2.75-1.8a1.58,1.58,0,0,1,1.52,1.05c.47,1,.29,2.79-.47,5.32a48.34,48.34,0,0,1-3,7.79A98.92,98.92,0,0,1,144.22,29a9,9,0,0,1-2.4,2.59c-.58,2.54-1,4.76-1.35,6.68a19.17,19.17,0,0,0-.23,3.64c.76-1.11,2-3,3.39-4.76,3.22-4.07,5.56-6.05,7.14-6.05.29,0,.64.25.64.8a8.41,8.41,0,0,1-1.81,4,7.93,7.93,0,0,1-5.5,3,1.8,1.8,0,0,0,.47.92c1.28,1.55,4.85,3.15,7.42,2.41,1.58-.43,3.28-1.67,5.5-4.2a28.22,28.22,0,0,0,2.87-3.34.54.54,0,0,1,.81-.06.61.61,0,0,1,.06.87,28.92,28.92,0,0,1-2.92,3.4C155.09,42.4,152.7,44.38,147.73,42.89Zm-5.44-13.35a29.12,29.12,0,0,0,2-2.84c1.52-2.35,3.22-5.38,4.86-8.53,3.86-7.47,6.08-13.65,5.79-16.06-.06-.87-.41-.87-.65-.87-.52,0-1.87.56-4.32,5.5a125.15,125.15,0,0,0-7.43,21.63A8.33,8.33,0,0,0,142.29,29.54Zm2.57,8a6.18,6.18,0,0,0,3.51-2.11,7.87,7.87,0,0,0,1.75-3C148.54,33.13,146.15,35.91,144.86,37.52Z" class="hkb-9"/><path d="M168.72,41.9c1.28-.37,3.09-1.67,5.14-3.89a27.56,27.56,0,0,0,2.86-3.34.55.55,0,0,1,.82-.06.61.61,0,0,1,.06.87,30.11,30.11,0,0,1-2.92,3.4c-2.22,2.41-4.09,3.76-5.61,4.2-.71.12-1.06.06-1.41-.31-.87-1.05-.29-3.34.82-6.74l.47-1.6c-.53.74-1.17,1.73-1.7,2.59-2.45,3.83-4,6.12-5.26,6.12-.88,0-2.34-.37-2.57-2.91a13.27,13.27,0,0,1,.7-4.88l.82-2a2.37,2.37,0,0,1,1.11-1.12.61.61,0,0,1,.7.5.67.67,0,0,1-.41.74,6.77,6.77,0,0,0-1.29,2.9,9.35,9.35,0,0,0-.4,4.39A1.27,1.27,0,0,0,162,41.9c.06,0,.47-.06,1.7-1.67.82-1.11,1.69-2.53,2.57-3.89l1.87-2.78c.59-.8,1.11-1.48,1.75-1.24s.47,1.3.35,1.8-.4,1.42-.64,2.28A30.47,30.47,0,0,0,168.54,40C168.48,40.36,168.07,42,168.72,41.9Z" class="hkb-10"/><path d="M174.91,42.64a.57.57,0,0,1-.52.44.22.22,0,0,1-.18-.06.66.66,0,0,1-.41-.75l3.57-14.21a.55.55,0,0,1,.7-.43.59.59,0,0,1,.41.74l-1.93,7.79c.41-.81.88-1.55,1.34-2.35a18.51,18.51,0,0,1,4.62-5.19,6.44,6.44,0,0,1,6.14-1,.65.65,0,0,1,.35.8.59.59,0,0,1-.76.37C180.82,26,175,42.46,174.91,42.64Z" class="hkb-11"/><path d="M193.85,37.82l-.46.87c-1.23,1.92-2.75,3-4.33,3a2.88,2.88,0,0,1-2.51-2.41,3.24,3.24,0,0,1,.23-2.23,4.11,4.11,0,0,1,1.4-1.67,4.14,4.14,0,0,1-.23-1.42,4.6,4.6,0,0,1,1.34-2.78,4.53,4.53,0,0,1,3.16-1.24c1.64.07,2.57,1.3,2.57,3.4a11.14,11.14,0,0,1-.58,3.22A14,14,0,0,0,199.23,35a1.23,1.23,0,0,0,.24-.31.55.55,0,0,1,.82-.06.63.63,0,0,1,.06.87.45.45,0,0,1-.18.18C200.17,36.47,195.2,37.64,193.85,37.82Zm-1.34,0a9.14,9.14,0,0,1-1.34-.12,4.09,4.09,0,0,1-2.4-1.23,2.25,2.25,0,0,0-1.11,2.47c.23.86.82,1.48,1.4,1.48s2.05-.31,3.33-2.41Zm1.65-4.51c0-1.42-.46-2.16-1.4-2.16a3.39,3.39,0,0,0-2.4.93,3.12,3.12,0,0,0-.93,1.91,2.06,2.06,0,0,0,.29,1.24v.12a3.07,3.07,0,0,0,1.93,1.12,9.23,9.23,0,0,0,1.81.12A8.69,8.69,0,0,0,194.16,33.31Z" class="hkb-12"/><path d="M211.45,49.81a.64.64,0,0,1-.81.31,18.43,18.43,0,0,0-11.58-2c-.29,1.61-.59,3.22-.94,4.76a72.79,72.79,0,0,1-3.74,12.61c-1.7,4.08-3.57,6.73-5.55,7.78a4.47,4.47,0,0,1-2.17.56,6,6,0,0,1-3.92-1.73,7.78,7.78,0,0,1-2.51-6.43,16.05,16.05,0,0,1,2.63-7.72,24.51,24.51,0,0,1,11.58-9.83A23.91,23.91,0,0,1,198.06,47c1.29-7.29,1.76-13.29,1.58-14.21a.65.65,0,0,1,0-.56.52.52,0,0,1,.7-.37c.47.19.47.68.47,1,.12,1.85-.47,7.6-1.52,14A19.75,19.75,0,0,1,211.16,49,.65.65,0,0,1,211.45,49.81Zm-13.62-1.48a17.46,17.46,0,0,0-3,.93,23.27,23.27,0,0,0-11,9.27,15.4,15.4,0,0,0-2.4,7.17,6.58,6.58,0,0,0,2.1,5.43c1.88,1.61,3.57,1.86,5.21.75s3.45-3.84,5-7.91a91,91,0,0,0,3.56-12.86Zm.64-21.26a1.7,1.7,0,1,1,1.7,1.79A1.75,1.75,0,0,1,198.47,27.07Zm1.17,0a.53.53,0,1,0,1.06,0,.53.53,0,1,0-1.06,0Z" class="hkb-13"/><path d="M209.52,43.11H209a2.63,2.63,0,0,1-2.34-1c-1.29-2,.47-5.93,1.58-8.53l.7-1.6a.6.6,0,0,1,.7-.44.73.73,0,0,1,.41.81c-.12.37-.41,1-.7,1.73a32.46,32.46,0,0,0-1.64,4.14c-.53,1.91-.35,2.78-.12,3.15a2,2,0,0,0,1.82.56c2.86-.37,5.2-2,7.31-4.21a28.14,28.14,0,0,0,2.86-3.33.54.54,0,0,1,.82-.06.61.61,0,0,1,.06.86,28.68,28.68,0,0,1-2.93,3.4C215.31,41,212.91,42.87,209.52,43.11Zm-.06-16a1.67,1.67,0,1,1,1.64,1.79A1.74,1.74,0,0,1,209.46,27.07Zm1.17,0a.5.5,0,1,0,.47-.55A.53.53,0,0,0,210.63,27.07Z" class="hkb-14"/></svg>
