<svg role="img" xmlns="http://www.w3.org/2000/svg" viewBox="0 0 320 311.81" width="320" height="311.80999755859375"><path d="M212.21,130.47C230.92,110,249.14,86.8,258.37,71.58c7.24-11.48,7.49-15.48,6.74-17.72l-4.74,1.5c0,.25.75,2.74-6.74,14.72-9.48,15-27.45,37.68-45.67,57.64a312.39,312.39,0,0,1-27,26.45c1.75-7.23,4-14.72,6.49-23.45,12.23-44.42,24.71-87.34,24.71-87.84a2.22,2.22,0,0,0-1.75-3,2.32,2.32,0,0,0-3,1.5c0,.5-12.73,43.42-24.71,87.84l-8.23,30.19a27.64,27.64,0,0,1-6.74,3.75c-1.23.11-2.3.22-3.16.33a137.76,137.76,0,0,0-28,3c.75-3.74,1.49-7.48,2.49-11.48a721.27,721.27,0,0,1,21.46-74.11c2-6,2.25-7,2.25-7.73a2.51,2.51,0,0,0-2.5-2.5,2.66,2.66,0,0,0-2.49,2.25,48.73,48.73,0,0,1-2,6.48,760.38,760.38,0,0,0-21.71,74.37l-3,14c-4.24,1-8.24,2.25-12.48,3.49A245,245,0,0,0,91.21,182c5.24-35.68,14.47-72.61,14.72-73.36a2.51,2.51,0,0,0-2-3,2.71,2.71,0,0,0-3,1.74c0,.25-6.24,25.46-11.48,54.15-1.49,8.24-2.74,16-3.74,23a9,9,0,0,1-2.24,1c-11.73,5.24-21.71,9.73-25,7.48a2.69,2.69,0,0,0-3.49.75,2.46,2.46,0,0,0,.75,3.5c1.24,1,3,1.24,5,1.24,5.49,0,13.47-3.24,23.95-8.23-3,23.2-3.24,39.92-.75,49.41a3,3,0,0,0,2.5,1.74H87a2.65,2.65,0,0,0,2-3c-2.75-10.48-1.5-29.94,1.24-50.66,11.23-5,24.71-10.73,39.93-14.72-7.49,37.18-11.23,72.37-11.23,104.81a2.5,2.5,0,0,0,5,0c0-32.94,4-68.63,11.48-106.06a139.4,139.4,0,0,1,26.84-3.19l.06,0c.34,0,.67-.06,1-.07h.38c.33,0,.65,0,1,0a5.31,5.31,0,0,1,.81-.07,6.15,6.15,0,0,1,1,.09l.87-.16c.5,0,1-.24,1.5-.24,1,0,2.24-.25,3.49-.25-9.48,36.18-14.22,57.14-13.72,62.88a2.5,2.5,0,0,0,2.49,2.5,2.91,2.91,0,0,0,2.5-2.75c-.25-3,1.49-16,13.72-62.63a100,100,0,0,1,15.72,2,66.67,66.67,0,0,1,22.71,9.73,63.38,63.38,0,0,1,20,21.46,2.63,2.63,0,0,0,2.25,1.25,2.72,2.72,0,0,0,1.25-.25,2.68,2.68,0,0,0,.74-3.49,65.34,65.34,0,0,0-21.71-23.46,75,75,0,0,0-24.7-10.23,127.26,127.26,0,0,0-14.72-2v-.5C189.75,154.42,203.47,140.2,212.21,130.47Z" class="hks-1" /></svg>
