<svg role="img" xmlns="http://www.w3.org/2000/svg" id="pocket" class="icon pocket" width="18" height="18" viewBox="0 0 32 32" aria-label="pocket icon"><path d="M25.066 13.68L17.54 20.9a2.19 2.19 0 0 1-3.04 0l-7.524-7.22a2.194 2.194 0 0 1 3.036-3.166l6.01 5.76 6.02-5.76a2.19 2.19 0 0 1 3.1.064c.84.86.82 2.26-.06 3.1zm6.776-10.056a2.882 2.882 0 0 0-2.72-1.912H2.9c-1.2 0-2.288.752-2.714 1.872a2.9 2.9 0 0 0-.19 1.03v9.656l.11 1.92c.464 4.368 2.73 8.184 6.24 10.846.06.048.126.094.19.14l.04.03a15.866 15.866 0 0 0 6.256 2.764c1.048.21 2.12.32 3.184.32.984 0 1.972-.092 2.944-.272.116-.04.232-.06.35-.08.032 0 .066-.02.1-.04a15.97 15.97 0 0 0 6.008-2.7l.04-.04.18-.14c3.5-2.66 5.76-6.48 6.24-10.86l.1-1.92V4.6c0-.334-.04-.666-.16-.99z" /></svg>
