<svg xmlns="http://www.w3.org/2000/svg" id="twitter" class="icon twitter" width="18" height="18" viewBox="0 0 32 32" aria-hidden="true"><path d="M28.93 7.286a12.455 12.455 0 0 1-2.894 2.982c.018.25.018.5.018.75 0 7.625-5.804 16.41-16.41 16.41-3.27 0-6.305-.945-8.858-2.588.464.054.91.07 1.393.07 2.695 0 5.178-.91 7.16-2.463a5.779 5.779 0 0 1-5.393-4c.357.054.714.09 1.09.09.517 0 1.035-.072 1.517-.197a5.768 5.768 0 0 1-4.625-5.66v-.072c.767.43 1.66.696 2.606.732a5.763 5.763 0 0 1-2.57-4.804c0-1.07.285-2.054.785-2.91a16.397 16.397 0 0 0 11.894 6.035 6.445 6.445 0 0 1-.143-1.32 5.765 5.765 0 0 1 5.77-5.768c1.66 0 3.16.696 4.213 1.82 1.304-.25 2.554-.73 3.66-1.392a5.753 5.753 0 0 1-2.535 3.18 11.561 11.561 0 0 0 3.32-.894z" /></svg>
