<svg role="img" xmlns="http://www.w3.org/2000/svg" id="youtube" class="icon youtube" width="18" height="18" viewBox="0 0 32 32" aria-label="youtube icon"><path d="M12.696 20.143l8.643-4.464-8.644-4.52v8.983zM16 4.75c6.732 0 11.196.32 11.196.32.625.072 2 .072 3.214 1.358 0 0 .982.964 1.268 3.18.34 2.588.32 5.178.32 5.178v2.43s.02 2.588-.32 5.178c-.286 2.196-1.268 3.18-1.268 3.18-1.214 1.267-2.59 1.267-3.214 1.338 0 0-4.464.34-11.196.34-8.32-.072-10.875-.322-10.875-.322-.714-.125-2.32-.09-3.536-1.357 0 0-.983-.982-1.27-3.18-.338-2.588-.32-5.178-.32-5.178v-2.43s-.018-2.588.32-5.178c.287-2.214 1.27-3.18 1.27-3.18 1.213-1.285 2.588-1.285 3.213-1.356 0 0 4.464-.32 11.196-.32z" /></svg>
