<svg role="img" id="dummy" xmlns="http://www.w3.org/2000/svg" viewBox="0 0 1280 720"><path d="M692.24,330.42C711,310,729.17,286.75,738.4,271.53c7.24-11.48,7.49-15.48,6.74-17.72l-4.74,1.5c0,.25.75,2.74-6.74,14.72-9.48,15-27.45,37.68-45.67,57.64a310.61,310.61,0,0,1-27,26.45c1.75-7.23,4-14.72,6.49-23.45,12.23-44.42,24.71-87.34,24.71-87.84a2.22,2.22,0,0,0-1.27-2.87,2.62,2.62,0,0,0-.48-.13,2.33,2.33,0,0,0-3,1.4l0,.1c0,.5-12.73,43.42-24.71,87.84l-8.23,30.19a27.65,27.65,0,0,1-6.74,3.75c-1.23.11-2.3.22-3.16.33a138,138,0,0,0-28,3c.75-3.74,1.49-7.48,2.49-11.48a722.8,722.8,0,0,1,21.46-74.11c2-6,2.25-7,2.25-7.73a2.51,2.51,0,0,0-2.5-2.5,2.67,2.67,0,0,0-2.49,2.25,48.55,48.55,0,0,1-2,6.48,760.31,760.31,0,0,0-21.71,74.37l-3,14c-4.24,1-8.24,2.25-12.48,3.49A246.29,246.29,0,0,0,571.24,382c5.24-35.68,14.47-72.61,14.72-73.36a2.51,2.51,0,0,0-1.92-3l-.08,0a2.72,2.72,0,0,0-3,1.74c0,.25-6.24,25.46-11.48,54.15-1.49,8.24-2.74,16-3.74,23a8.82,8.82,0,0,1-2.24,1c-11.73,5.24-21.71,9.73-25,7.48a2.7,2.7,0,0,0-3.49.75,2.47,2.47,0,0,0,.63,3.43l.12.07c1.24,1,3,1.24,5,1.24,5.49,0,13.47-3.24,24-8.23-3,23.2-3.24,39.92-.75,49.41a3,3,0,0,0,2.5,1.74H567a2.65,2.65,0,0,0,2-3c-2.75-10.48-1.5-29.94,1.24-50.66C581.5,382.71,595,377,610.2,373,602.71,410.17,599,445.36,599,477.8a2.5,2.5,0,0,0,5,0c0-32.94,4-68.63,11.48-106.06a139.27,139.27,0,0,1,26.84-3.19h.06c.34,0,.67-.06,1-.07h1.38a7.38,7.38,0,0,1,.81-.07,8.44,8.44,0,0,1,1,.09l.87-.16c.5,0,1-.24,1.5-.24,1,0,2.24-.25,3.49-.25C642.92,404,638.18,425,638.68,430.73a2.49,2.49,0,0,0,2.49,2.5,2.9,2.9,0,0,0,2.5-2.75c-.25-3,1.49-16,13.72-62.63a100.29,100.29,0,0,1,15.72,2,66.69,66.69,0,0,1,22.71,9.73,63.43,63.43,0,0,1,20,21.46,2.61,2.61,0,0,0,2.25,1.25,2.31,2.31,0,0,0,2-3.74,65.41,65.41,0,0,0-21.71-23.46,75.14,75.14,0,0,0-24.7-10.23,127.91,127.91,0,0,0-14.72-2v-.5C669.78,354.37,683.5,340.15,692.24,330.42Z" fill="#fff"/></svg>
