<svg xmlns="http://www.w3.org/2000/svg" id="hatebu" width="32" height="32" viewBox="0 0 32 32" aria-label="hatebu icon"><path d="M27.294 0C29.894 0 32 2.106 32 4.706v22.588c0 2.6-2.106 4.706-4.706 4.706H4.706A4.705 4.705 0 0 1 0 27.294V4.706C0 2.106 2.106 0 4.706 0h22.588zm-4.94 19.294c-1.04 0-1.88.84-1.88 1.88s.84 1.884 1.88 1.884 1.88-.86 1.88-1.9-.84-1.88-1.88-1.88zm-10.872 3.7c1.6 0 2.74-.056 3.44-.16.7-.112 1.3-.296 1.76-.55.6-.31 1.04-.752 1.36-1.32s.48-1.22.48-1.972c0-1.04-.28-1.872-.84-2.494-.56-.64-1.32-.98-2.32-1.06.88-.24 1.54-.6 1.94-1.08.42-.46.62-1.1.62-1.9 0-.64-.14-1.18-.4-1.68-.28-.48-.66-.86-1.18-1.16-.46-.26-.98-.42-1.62-.54-.62-.1-1.72-.16-3.3-.16H7.54v13.98h3.94zm.98-5.58c.94 0 1.58.116 1.92.348.36.24.52.66.52 1.24 0 .54-.18.92-.56 1.14-.36.24-1.02.34-1.92.34h-1.34V17.42h1.4zm11.54.94V8.94h-3.28v9.414H24zM11.9 12.106c.946 0 1.58.108 1.91.32.326.214.49.58.49 1.108 0 .506-.174.86-.52 1.07-.354.206-.996.31-1.936.31h-.76v-2.808h.82z" /></svg>
