<svg xmlns="http://www.w3.org/2000/svg" id="line" width="32" height="32" viewBox="0 0 32 32" aria-label="line icon"><path d="M25.82 13.14c.464 0 .84.38.84.84s-.376.84-.84.84h-2.34v1.5h2.34a.84.84 0 1 1 0 1.68h-3.18a.842.842 0 0 1-.836-.84V10.8c0-.46.376-.84.84-.84h3.18a.84.84 0 1 1-.004 1.68h-2.34v1.5h2.34zm-5.14 4.02c0 .36-.232.68-.576.796a.858.858 0 0 1-.266.04c-.28 0-.52-.12-.68-.334L15.9 13.24v3.92a.84.84 0 0 1-.84.84.84.84 0 0 1-.834-.84V10.8a.837.837 0 0 1 .832-.838c.26 0 .5.14.66.34L19 14.74V10.8c0-.46.376-.84.84-.84.46 0 .84.38.84.84v6.36zm-7.656 0c0 .46-.376.84-.84.84a.842.842 0 0 1-.836-.84V10.8c0-.46.376-.84.84-.84.46 0 .836.38.836.84v6.36zM9.736 18h-3.18c-.46 0-.84-.38-.84-.84V10.8c0-.46.38-.84.84-.84.464 0 .84.38.84.84v5.52h2.34a.84.84 0 1 1 0 1.68zM32 13.74C32 6.58 24.82.752 16 .752S0 6.58 0 13.74c0 6.416 5.692 11.792 13.38 12.81.52.112 1.23.344 1.41.788.16.4.106 1.02.052 1.44l-.22 1.36c-.06.4-.32 1.58 1.4.86s9.22-5.44 12.58-9.3C30.9 19.18 32 16.6 32 13.74z" /></svg>
